<svg id="Layer_1" data-name="Layer 1" xmlns="http://www.w3.org/2000/svg" xmlns:xlink="http://www.w3.org/1999/xlink" viewBox="0 0 173.94 34.06"><defs><style>.cls-1{fill:#105161;}.cls-2{opacity:0.32;}.cls-3{fill:url(#New_Gradient_Swatch_4);}.cls-4{opacity:0.21;}.cls-5{fill:url(#radial-gradient);}.cls-6{opacity:0.73;}.cls-7{fill:url(#radial-gradient-2);}</style><linearGradient id="New_Gradient_Swatch_4" y1="17.03" x2="95.72" y2="17.03" gradientUnits="userSpaceOnUse"><stop offset="0" stop-color="#105161"/><stop offset="1" stop-color="#63c2cd"/></linearGradient><radialGradient id="radial-gradient" cx="129.32" cy="42.47" r="113.39" gradientUnits="userSpaceOnUse"><stop offset="0" stop-color="#141f36"/><stop offset="1" stop-color="#63c2cd" stop-opacity="0"/></radialGradient><radialGradient id="radial-gradient-2" cx="26.42" cy="8.04" r="95.58" gradientUnits="userSpaceOnUse"><stop offset="0" stop-color="#105161"/><stop offset="1" stop-color="#d5ecf2" stop-opacity="0"/></radialGradient></defs><title>MEC Logo</title><path class="cls-1" d="M57.09,11.3a5.58,5.58,0,0,1,5.53,4.32H51A6.36,6.36,0,0,1,57.09,11.3Zm31.58,11a9,9,0,0,1-6.36,2.9,8.15,8.15,0,0,1-7.81-8.25,8.07,8.07,0,0,1,7.81-8.06,8.94,8.94,0,0,1,6.17,2.77l7.05-5.86A17.2,17.2,0,0,0,82.37,0,18.56,18.56,0,0,0,67.1,8c2.72,3,4.21,7.57,4.21,13.32H50.9a6.38,6.38,0,0,0,6.2,4.81c2.21,0,4.6-.59,5.47-2.43l8,1.83a12.47,12.47,0,0,1-1.49,2.94,18.43,18.43,0,0,0,13.18,5.59,17.41,17.41,0,0,0,13.47-6ZM42,18.66a14.86,14.86,0,0,1,3.9-10.34A13.58,13.58,0,0,0,33.69,0a13.1,13.1,0,0,0-10,4.8,13.1,13.1,0,0,0-10-4.8C6.38,0,.42,6.32,0,14.27H0V34.06H8.91V13.9h0a5.51,5.51,0,0,1,5.25-5.43,5.51,5.51,0,0,1,5.25,5.43h0V34.06h8.72V13.9h0a5.51,5.51,0,0,1,5.25-5.43,5.51,5.51,0,0,1,5.25,5.43h0V34.06h8.7V30.38A14.68,14.68,0,0,1,42,18.66Z"/><g class="cls-2"><path class="cls-3" d="M57.09,11.3a5.58,5.58,0,0,1,5.53,4.32H51A6.36,6.36,0,0,1,57.09,11.3Zm31.58,11a9,9,0,0,1-6.36,2.9,8.15,8.15,0,0,1-7.81-8.25,8.07,8.07,0,0,1,7.81-8.06,8.94,8.94,0,0,1,6.17,2.77l7.05-5.86A17.2,17.2,0,0,0,82.37,0,18.56,18.56,0,0,0,67.1,8c2.72,3,4.21,7.57,4.21,13.32H50.9a6.38,6.38,0,0,0,6.2,4.81c2.21,0,4.6-.59,5.47-2.43l8,1.83a12.47,12.47,0,0,1-1.49,2.94,18.43,18.43,0,0,0,13.18,5.59,17.41,17.41,0,0,0,13.47-6ZM42,18.66a14.86,14.86,0,0,1,3.9-10.34A13.58,13.58,0,0,0,33.69,0a13.1,13.1,0,0,0-10,4.8,13.1,13.1,0,0,0-10-4.8C6.38,0,.42,6.32,0,14.27H0V34.06H8.91V13.9h0a5.51,5.51,0,0,1,5.25-5.43,5.51,5.51,0,0,1,5.25,5.43h0V34.06h8.72V13.9h0a5.51,5.51,0,0,1,5.25-5.43,5.51,5.51,0,0,1,5.25,5.43h0V34.06h8.7V30.38A14.68,14.68,0,0,1,42,18.66Z"/></g><g class="cls-4"><path class="cls-5" d="M57.09,11.3a5.58,5.58,0,0,1,5.53,4.32H51A6.36,6.36,0,0,1,57.09,11.3Zm31.58,11a9,9,0,0,1-6.36,2.9,8.15,8.15,0,0,1-7.81-8.25,8.07,8.07,0,0,1,7.81-8.06,8.94,8.94,0,0,1,6.17,2.77l7.05-5.86A17.2,17.2,0,0,0,82.37,0,18.56,18.56,0,0,0,67.1,8c2.72,3,4.21,7.57,4.21,13.32H50.9a6.38,6.38,0,0,0,6.2,4.81c2.21,0,4.6-.59,5.47-2.43l8,1.83a12.47,12.47,0,0,1-1.49,2.94,18.43,18.43,0,0,0,13.18,5.59,17.41,17.41,0,0,0,13.47-6ZM42,18.66a14.86,14.86,0,0,1,3.9-10.34A13.58,13.58,0,0,0,33.69,0a13.1,13.1,0,0,0-10,4.8,13.1,13.1,0,0,0-10-4.8C6.38,0,.42,6.32,0,14.27H0V34.06H8.91V13.9h0a5.51,5.51,0,0,1,5.25-5.43,5.51,5.51,0,0,1,5.25,5.43h0V34.06h8.72V13.9h0a5.51,5.51,0,0,1,5.25-5.43,5.51,5.51,0,0,1,5.25,5.43h0V34.06h8.7V30.38A14.68,14.68,0,0,1,42,18.66Z"/></g><g class="cls-6"><path class="cls-7" d="M57.09,11.3a5.58,5.58,0,0,1,5.53,4.32H51A6.36,6.36,0,0,1,57.09,11.3Zm31.58,11a9,9,0,0,1-6.36,2.9,8.15,8.15,0,0,1-7.81-8.25,8.07,8.07,0,0,1,7.81-8.06,8.94,8.94,0,0,1,6.17,2.77l7.05-5.86A17.2,17.2,0,0,0,82.37,0,18.56,18.56,0,0,0,67.1,8c2.72,3,4.21,7.57,4.21,13.32H50.9a6.38,6.38,0,0,0,6.2,4.81c2.21,0,4.6-.59,5.47-2.43l8,1.83a12.47,12.47,0,0,1-1.49,2.94,18.43,18.43,0,0,0,13.18,5.59,17.41,17.41,0,0,0,13.47-6ZM42,18.66a14.86,14.86,0,0,1,3.9-10.34A13.58,13.58,0,0,0,33.69,0a13.1,13.1,0,0,0-10,4.8,13.1,13.1,0,0,0-10-4.8C6.38,0,.42,6.32,0,14.27H0V34.06H8.91V13.9h0a5.51,5.51,0,0,1,5.25-5.43,5.51,5.51,0,0,1,5.25,5.43h0V34.06h8.72V13.9h0a5.51,5.51,0,0,1,5.25-5.43,5.51,5.51,0,0,1,5.25,5.43h0V34.06h8.7V30.38A14.68,14.68,0,0,1,42,18.66Z"/></g><path class="cls-1" d="M122.8,5.89v4.93h-1.45V6.11a1.73,1.73,0,0,0-1.65-1.93A1.76,1.76,0,0,0,117.81,6v4.84h-1.45V6.11a1.73,1.73,0,0,0-1.65-1.93A1.76,1.76,0,0,0,112.82,6v4.84h-1.48V3.07h1.48V4.15A2.39,2.39,0,0,1,115,2.89a2.67,2.67,0,0,1,2.49,1.56A2.58,2.58,0,0,1,120,2.89,2.79,2.79,0,0,1,122.8,5.89Z"/><path class="cls-1" d="M123.76.88a.89.89,0,0,1,1.78,0,.89.89,0,1,1-1.78,0Zm.15,2.19h1.48v7.75h-1.48Z"/><path class="cls-1" d="M130.81,2.89V4.18a2.61,2.61,0,0,0-2.88,2.23v4.41h-1.48V3.07h1.48V4.56A3.07,3.07,0,0,1,130.81,2.89Z"/><path class="cls-1" d="M134.3,3.07h1.83V4.33H134.3v6.49h-1.45V4.33h-1.17V3.07h1.17V2.14a2,2,0,0,1,2-2.11,2.5,2.5,0,0,1,1.54.55l-.54,1a1.16,1.16,0,0,0-.79-.28.86.86,0,0,0-.79.93Z"/><path class="cls-1" d="M137.08.88a.89.89,0,0,1,1.78,0,.89.89,0,1,1-1.78,0Zm.15,2.19h1.48v7.75h-1.48Z"/><path class="cls-1" d="M146,8.84l.93,1a4.67,4.67,0,0,1-3.13,1.2,4,4,0,0,1-4-4.08,3.89,3.89,0,0,1,3.87-4c2.37,0,3.73,1.8,3.73,4.57h-6.1a2.46,2.46,0,0,0,2.47,2.22A3.38,3.38,0,0,0,146,8.84Zm-4.68-2.56h4.65a2.16,2.16,0,0,0-2.23-2.07A2.43,2.43,0,0,0,141.28,6.28Z"/><path class="cls-1" d="M148.37.34h1.47V10.82h-1.47Z"/><path class="cls-1" d="M158.65.34V10.82h-1.47V9.47A3.14,3.14,0,0,1,154.42,11c-2,0-3.57-1.68-3.57-4.06s1.53-4,3.57-4a3.16,3.16,0,0,1,2.76,1.51V.34Zm-1.47,6.59a2.43,2.43,0,1,0-4.82,0,2.44,2.44,0,1,0,4.82,0Z"/><path class="cls-1" d="M109.37,20.37l.93,1a4.67,4.67,0,0,1-3.13,1.2,4,4,0,0,1-4-4.08,3.89,3.89,0,0,1,3.87-4c2.37,0,3.73,1.8,3.73,4.57h-6.1a2.46,2.46,0,0,0,2.47,2.22A3.38,3.38,0,0,0,109.37,20.37Zm-4.68-2.56h4.65a2.16,2.16,0,0,0-2.23-2.07A2.43,2.43,0,0,0,104.7,17.81Z"/><path class="cls-1" d="M110.49,14.6h1.6l2.41,6,2.37-6h1.6l-3.27,7.75h-1.39Z"/><path class="cls-1" d="M125.45,17.66v4.69H124V21.29a3.23,3.23,0,0,1-2.58,1.24c-1.65,0-2.86-1-2.86-2.47s1.39-2.58,3.1-2.58a7.45,7.45,0,0,1,2.34.42v-.24a1.82,1.82,0,0,0-2-2,4.93,4.93,0,0,0-2.19.64l-.54-1.09a6.58,6.58,0,0,1,2.94-.78A3,3,0,0,1,125.45,17.66ZM124,19.92v-1a7.22,7.22,0,0,0-2.11-.3c-1,0-1.9.58-1.9,1.42s.75,1.35,1.72,1.35A2.28,2.28,0,0,0,124,19.92Z"/><path class="cls-1" d="M133.31,17.42v4.93h-1.45V17.67a1.8,1.8,0,0,0-1.78-2A2.06,2.06,0,0,0,128,17.33v5h-1.48V14.6H128v1.12a2.89,2.89,0,0,1,2.46-1.3A2.83,2.83,0,0,1,133.31,17.42Z"/><path class="cls-1" d="M142,14.6v6.92c0,2-1.63,3.4-3.93,3.4a5.28,5.28,0,0,1-3.24-1l.58-1.11a3.62,3.62,0,0,0,2.43.85c1.66,0,2.67-.79,2.67-2.14V20.37a3.24,3.24,0,0,1-2.74,1.41,3.48,3.48,0,0,1-3.52-3.69,3.46,3.46,0,0,1,3.52-3.67,3.25,3.25,0,0,1,2.74,1.42V14.6Zm-1.48,3.49a2.36,2.36,0,1,0-4.72,0,2.36,2.36,0,1,0,4.72,0Z"/><path class="cls-1" d="M149.36,20.37l.93,1a4.67,4.67,0,0,1-3.13,1.2,4,4,0,0,1-4-4.08,3.89,3.89,0,0,1,3.87-4c2.37,0,3.73,1.8,3.73,4.57h-6.1a2.46,2.46,0,0,0,2.47,2.22A3.38,3.38,0,0,0,149.36,20.37Zm-4.68-2.56h4.65a2.16,2.16,0,0,0-2.23-2.07A2.43,2.43,0,0,0,144.68,17.81Z"/><path class="cls-1" d="M151.87,11.88h1.47V22.35h-1.47Z"/><path class="cls-1" d="M154.35,12.41a.89.89,0,0,1,1.78,0,.89.89,0,1,1-1.78,0Zm.15,2.19H156v7.75H154.5Z"/><path class="cls-1" d="M157,18.47a4.12,4.12,0,0,1,4.09-4,4,4,0,0,1,2.85,1.2l-1,.93a2.49,2.49,0,0,0-1.86-.84,2.77,2.77,0,0,0,0,5.53,2.55,2.55,0,0,0,1.89-.87l1,.91a4,4,0,0,1-2.91,1.24A4.13,4.13,0,0,1,157,18.47Z"/><path class="cls-1" d="M171.39,17.66v4.69h-1.45V21.29a3.23,3.23,0,0,1-2.58,1.24c-1.65,0-2.86-1-2.86-2.47s1.39-2.58,3.1-2.58a7.45,7.45,0,0,1,2.34.42v-.24a1.82,1.82,0,0,0-2-2,4.93,4.93,0,0,0-2.19.64l-.54-1.09a6.58,6.58,0,0,1,2.94-.78A3,3,0,0,1,171.39,17.66Zm-1.45,2.26v-1a7.22,7.22,0,0,0-2.11-.3c-1,0-1.9.58-1.9,1.42s.75,1.35,1.72,1.35A2.28,2.28,0,0,0,169.94,19.92Z"/><path class="cls-1" d="M172.47,11.88h1.47V22.35h-1.47Z"/><path class="cls-1" d="M121.5,30a4.12,4.12,0,0,1,4.09-4,4,4,0,0,1,2.85,1.2l-1,.93a2.49,2.49,0,0,0-1.86-.84,2.77,2.77,0,0,0,0,5.53,2.55,2.55,0,0,0,1.89-.87l1,.91a4,4,0,0,1-2.91,1.24A4.13,4.13,0,0,1,121.5,30Z"/><path class="cls-1" d="M136.38,28.95v4.93h-1.45V29.2a1.8,1.8,0,0,0-1.78-2A2,2,0,0,0,131,29.07v4.81h-1.47V23.41H131v3.88A2.89,2.89,0,0,1,133.47,26,2.83,2.83,0,0,1,136.38,28.95Z"/><path class="cls-1" d="M144.38,26.13v7.75h-1.48V32.76a2.89,2.89,0,0,1-2.46,1.3,2.83,2.83,0,0,1-2.91-3V26.13H139v4.68a1.8,1.8,0,0,0,1.78,2,2.06,2.06,0,0,0,2.13-1.62v-5Z"/><path class="cls-1" d="M149.81,26v1.29a2.61,2.61,0,0,0-2.88,2.23v4.41h-1.48V26.13h1.48v1.48A3.07,3.07,0,0,1,149.81,26Z"/><path class="cls-1" d="M149.89,30A4.12,4.12,0,0,1,154,26a4,4,0,0,1,2.85,1.2l-1,.93a2.49,2.49,0,0,0-1.86-.84,2.77,2.77,0,0,0,0,5.53,2.55,2.55,0,0,0,1.89-.87l1,.91A4,4,0,0,1,154,34.06,4.13,4.13,0,0,1,149.89,30Z"/><path class="cls-1" d="M164.84,28.95v4.93h-1.45V29.2a1.8,1.8,0,0,0-1.78-2,2,2,0,0,0-2.14,1.83v4.81H158V23.41h1.47v3.88A2.89,2.89,0,0,1,161.94,26,2.83,2.83,0,0,1,164.84,28.95Z"/></svg>